<?xml version="1.0" encoding="utf-8"?>
<?xml-stylesheet type="text/xsl" href="rss1.xsl"?>
<rss version="2.0" xmlns:atom="http://www.w3.org/2005/Atom" xmlns:content="http://purl.org/rss/1.0/modules/content/" xmlns:dc="http://purl.org/dc/elements/1.1/" xmlns:media="http://search.yahoo.com/mrss/">
<channel>
 <title>Getty</title>
 <link>http://www.gettyimg.com/</link>
 <atom:link href="http://www.gettyimg.com/" rel="self" type="application/rss+xml" />

 
                <item>
                <title><![CDATA[【UPSCALED】Sven Vath - L'Esperanza (1080P Remastered / AI Upscale)]]></title>
                <link><![CDATA[https://sharemania.us/threads/sven-vath-lesperanza-1080p-remastered-ai-upscale.221921/]]></link>
                <description><![CDATA[<article>
<blockquote class="messageText SelectQuoteContainer ugc baseHtml">
<a href="https://postimg.cc/CdKk1BvG" target="_blank" class="externalLink" rel="nofollow"><img src="https://i.postimg.cc/CdKk1BvG/Sven-Vath-L-Esperanza-1080-P-Remastered-mp4-thumbs-2023-06-02-22-44-50.jpg" class="bbCodeImage LbImage" alt="[​IMG]" data-url="https://i.postimg.cc/CdKk1BvG/Sven-Vath-L-Esperanza-1080-P-Remastered-mp4-thumbs-2023-06-02-22-44-50.jpg"></a><br>
<br>
<div class="bbCodeBlock bbCodeVfcHH HiddenContent">
<div class="attribution type">Hidden Content:</div>
<blockquote>You must either reply or click 'Like' to see the hidden information contained here.</blockquote>
</div>
<div class="messageTextEndMarker">&nbsp;</div>
</blockquote>
</article>]]></description>
                <author><![CDATA[djalf77]]></author>
                </item>

                
                <item>
                <title><![CDATA[【Albums (lossless)】FLAC - Stray Kids – 5-STAR [WEB FLAC 16-Bit/44.1 kHz + Bugs! Hi-Fi Audio]]]></title>
                <link><![CDATA[https://sharemania.us/threads/stray-kids-%E2%80%93-5-star-web-flac-16-bit-44-1-khz-bugs-hi-fi-audio.221912/]]></link>
                <description><![CDATA[<article>
<blockquote class="messageText SelectQuoteContainer ugc baseHtml">
<b><img src="https://i.imgur.com/Wg5eSXm.jpg" class="bbCodeImage LbImage" alt="[​IMG]" data-url="https://i.imgur.com/Wg5eSXm.jpg" style=""><br>
</b><br>
<span style="font-family: 'Book Antiqua'"><span style="font-size: 15px"><b>Artist</b>: Stray Kids (스트레이 키즈)<br>
<b>Album</b>: ★★★★★ (5-STAR)<br>
<b>Release</b>: 2023/06/02<br>
<b>Type</b>: Studio Album<br>
<b>Format</b>: Free Lossless Audio Codec<br>
<b>Quality</b>: High Fidelity, Lossless Audio - CD Quality<br>
<b>Sample Rate</b>: 16-Bit/44.100 kHz - Stereo<br>
<b>Source</b>: Ripped from <span style="color: #0059b3">Bugs!</span><br>
<br>
<b>TRACK LIST</b><br>
1. 위인전<br>
2. 특<br>
3. ITEM<br>
4. Super Bowl<br>
5. TOPLINE (Feat. Tiger JK)<br>
6. DLC<br>
7. 죽어보자<br>
8. 충돌<br>
9. FNF<br>
10. Youtiful<br>
11. THE SOUND (Korean Ver.)<br>
12. Time Out<br>
<br>
<b>MORE INFORMATION</b><br>
1 Disc - 12 Tracks.<br>
Artwork - JPEG 4000x4000.<br>
SoX Spectrograms - <a href="https://imgur.com/a/xN4xi5H" target="_blank" class="externalLink" rel="nofollow">Preview</a><a href="https://i.imgur.com/AUopLok.png" target="_blank" class="externalLink" rel="nofollow">.</a><br>
Lossless Audio Checker - <a href="https://i.imgur.com/HWkyW2i.png" target="_blank" class="externalLink" rel="nofollow">Preview</a>.<br>
<br>
<b>DOWNLOAD</b><br>
<div class="bbCodeBlock bbCodeVfcHH HiddenContent">
<div class="attribution type">Hidden Content:</div>
<blockquote>You must reply before you can see the hidden data contained here.</blockquote>
</div></span></span>
<div class="messageTextEndMarker">&nbsp;</div>
</blockquote>
</article>]]></description>
                <author><![CDATA[samymskzs]]></author>
                </item>

                
                <item>
                <title><![CDATA[【UPSCALED】Benny Benassi - Satisfaction (AI Upscaled 1080P)]]></title>
                <link><![CDATA[https://sharemania.us/threads/benny-benassi-satisfaction-ai-upscaled-1080p.221930/]]></link>
                <description><![CDATA[<article>
<blockquote class="messageText SelectQuoteContainer ugc baseHtml">
<a href="https://postimg.cc/751NFCPp" target="_blank" class="externalLink" rel="nofollow"><img src="https://i.postimg.cc/751NFCPp/Benny-Benassi-Satisfaction-1080-P-Remastered-mp4-thumbs-2023-06-02-23-39-12.jpg" class="bbCodeImage LbImage" alt="[​IMG]" data-url="https://i.postimg.cc/751NFCPp/Benny-Benassi-Satisfaction-1080-P-Remastered-mp4-thumbs-2023-06-02-23-39-12.jpg"></a><br>
<br>
<div class="bbCodeBlock bbCodeVfcHH HiddenContent">
<div class="attribution type">Hidden Content:</div>
<blockquote>You must either reply or click 'Like' to see the hidden information contained here.</blockquote>
</div>
<div class="messageTextEndMarker">&nbsp;</div>
</blockquote>
</article>]]></description>
                <author><![CDATA[djalf77]]></author>
                </item>

                
                <item>
                <title><![CDATA[【HD Live Performances】Divididos 35 años Estadio Vélez 2023 FLOW.WEB-DL.1080p-Tknobi]]></title>
                <link><![CDATA[https://sharemania.us/threads/divididos-35-a%C3%B1os-estadio-v%C3%A9lez-2023-flow-web-dl-1080p-tknobi.221908/]]></link>
                <description><![CDATA[<article>
<blockquote class="messageText SelectQuoteContainer ugc baseHtml">
<div style="text-align: center"><img src="https://images2.imgbox.com/84/73/juwScVkY_o.jpg" class="bbCodeImage LbImage" alt="[​IMG]" data-url="https://images2.imgbox.com/84/73/juwScVkY_o.jpg" style=""> <br>
<div class="ToggleTriggerAnchor bbCodeSpoilerContainer">
<button type="button" class="button bbCodeSpoilerButton ToggleTrigger Tooltip JsOnly" data-target="> .SpoilerTarget"><span>Spoiler: <span class="SpoilerTitle">MediaInfo</span></span></button>
<div class="SpoilerTarget bbCodeSpoilerText">Format : Matroska<br>
Format version : Version 4<br>
File size : 5.18 GiB<br>
Duration : 3 h 5 min<br>
Overall bit rate : 3 998 kb/s<br>
Encoded date : UTC 2023-06-01 05:59:56<br>
Writing application : mkvmerge v66.0.0 ('Josie') 64-bit<br>
Writing library : libebml v1.4.2 + libmatroska v1.6.4<br>
<br>
Video<br>
ID : 1<br>
Format : AVC<br>
Format/Info : Advanced Video Codec<br>
Format profile : High@L4<br>
Format settings : CABAC / 3 Ref Frames<br>
Format settings, CABAC : Yes<br>
Format settings, Reference frames : 3 frames<br>
Format settings, GOP : M=1, N=60<br>
Codec ID : V_MPEG4/ISO/AVC<br>
Duration : 3 h 5 min<br>
Bit rate : 3 932 kb/s<br>
Width : 1 920 pixels<br>
Height : 1 080 pixels<br>
Display aspect ratio : 16:9<br>
Frame rate mode : Constant<br>
Frame rate : 29.970 (30000/1001) FPS<br>
Color space : YUV<br>
Chroma subsampling : 4:2:0<br>
Bit depth : 8 bits<br>
Scan type : Progressive<br>
Bits/(Pixel*Frame) : 0.063<br>
Stream size : 5.10 GiB (98%)<br>
Language : English<br>
Default : Yes<br>
Forced : No<br>
<br>
Audio<br>
ID : 2<br>
Format : AAC LC SBR<br>
Format/Info : Advanced Audio Codec Low Complexity with Spectral Band Replication<br>
Commercial name : HE-AAC<br>
Format settings : Implicit<br>
Codec ID : A_AAC-2<br>
Duration : 3 h 5 min<br>
Bit rate : 64.0 kb/s<br>
Channel(s) : 2 channels<br>
Channel layout : L R<br>
Sampling rate : 48.0 kHz<br>
Frame rate : 23.438 FPS (2048 SPF)<br>
Compression mode : Lossy<br>
Stream size : 85.0 MiB (2%)<br>
Language : English<br>
Default : Yes<br>
Forced : No</div>
</div><br>
<div class="bbCodeBlock bbCodeVfcHH HiddenContent">
<div class="attribution type">Hidden Content:</div>
<blockquote>You must either reply or click 'Like' to see the hidden information contained here.</blockquote>
</div></div>
<div class="messageTextEndMarker">&nbsp;</div>
</blockquote>
</article>]]></description>
                <author><![CDATA[tknobi]]></author>
                </item>

                
                <item>
                <title><![CDATA[【Cinema Center】MOVIE - A.Walk.to.Remember.2002.1080p.PCOK.WEB-DL.DDP5.1.x264-Samuel]]></title>
                <link><![CDATA[https://sharemania.us/threads/a-walk-to-remember-2002-1080p-pcok-web-dl-ddp5-1-x264-samuel.221913/]]></link>
                <description><![CDATA[<article>
<blockquote class="messageText SelectQuoteContainer ugc baseHtml">
<div style="text-align: center"><b><span style="font-size: 26px">A Walk to Remember</span></b><br>
<img src="https://i.imgur.com/rzYUJOP.png" class="bbCodeImage LbImage" alt="[​IMG]" data-url="https://i.imgur.com/rzYUJOP.png" style=""><br>
<b><a href="https://i.imgur.com/WXbiG7T.jpg" target="_blank" class="externalLink" rel="nofollow">Alternate Artwork</a></b> | <b><a href="https://i.imgur.com/msj5jok.jpg" target="_blank" class="externalLink" rel="nofollow">Poster</a></b> | <b><a href="https://i.imgur.com/m9OPfvg.jpg" target="_blank" class="externalLink" rel="nofollow">Key Art</a></b><br>
<br>
Romance • 2002 • PG • 1h 42m<br>
<img src="https://i.imgur.com/tAMArCY.png" class="bbCodeImage LbImage" alt="[​IMG]" data-url="https://i.imgur.com/tAMArCY.png" style=""> Shane West, Mandy Moore, Peter Coyote<br>
<br>
<div class="bbCodeBlock bbCodeQuote">
<aside>
<blockquote class="quoteContainer"><div class="quote"><b><span style="font-size: 15px"><span style="font-family: 'Arial'">Description</span></span></b><br>
Forced to tutor students at a school, a young delinquent falls for a minister’s daughter.</div><div class="quoteExpand">Click to expand...</div></blockquote>
</aside>
</div>
<div class="bbCodeBlock bbCodeQuote">
<aside>
<blockquote class="quoteContainer"><div class="quote"><b><span style="font-size: 15px"><span style="font-family: 'Arial'">Source</span></span></b><br>
<img src="https://i.imgur.com/3SYP1bO.png" class="bbCodeImage LbImage" alt="[​IMG]" data-url="https://i.imgur.com/3SYP1bO.png" style=""></div><div class="quoteExpand">Click to expand...</div></blockquote>
</aside>
</div>
<div class="bbCodeBlock bbCodeQuote">
<aside>
<blockquote class="quoteContainer"><div class="quote"><b><span style="font-size: 15px"><span style="font-family: 'Arial'">Trailers</span></span></b><br>
<div data-s9e-mediaembed="googledrive" style="display:inline-block;width:100%;max-width:640px"><div style="overflow:hidden;position:relative;padding-bottom:75%"><iframe allowfullscreen="" scrolling="no" src="//drive.google.com/file/d/1w79LcxTo6NRWQL7xjmrRSD61MElvzSY3/preview" style="border:0;height:100%;left:0;position:absolute;width:100%"></iframe></div></div></div><div class="quoteExpand quoteCut">Click to expand...</div></blockquote>
</aside>
</div>
<div class="bbCodeBlock bbCodeQuote">
<aside>
<blockquote class="quoteContainer"><div class="quote"><b><b><span style="font-size: 15px">Release Name</span></b></b><br>
A.Walk.to.Remember.2002.1080p.PCOK.WEB-DL.DDP5.1.x264-Samuel</div><div class="quoteExpand">Click to expand...</div></blockquote>
</aside>
</div>
<div class="ToggleTriggerAnchor bbCodeSpoilerContainer">
<button type="button" class="button bbCodeSpoilerButton ToggleTrigger Tooltip JsOnly" data-target="> .SpoilerTarget"><span>Spoiler: <span class="SpoilerTitle">Media Information</span></span></button>
<div class="SpoilerTarget bbCodeSpoilerText">General<br>
Complete name : A.Walk.to.Remember.2002.1080p.PCOK.WEB-DL.DDP5.1.x264-Samuel.mkv<br>
Format : Matroska<br>
Format version : Version 4<br>
File size : 5.53 GiB<br>
Duration : 1 h 42 min<br>
Overall bit rate : 7 757 kb/s<br>
Frame rate : 23.976 FPS<br>
Encoded date : 2023-06-02 14:29:41 UTC<br>
Writing application : mkvmerge v72.0.0 ('Minuano (Six-eight)') 64-bit<br>
Writing library : libebml v1.4.4 + libmatroska v1.7.1<br>
<br>
Video<br>
ID : 1<br>
Format : AVC<br>
Format/Info : Advanced Video Codec<br>
Format profile : High@L4<br>
Format settings : CABAC / 4 Ref Frames<br>
Format settings, CABAC : Yes<br>
Format settings, Reference frames : 4 frames<br>
Codec ID : V_MPEG4/ISO/AVC<br>
Duration : 1 h 42 min<br>
Bit rate : 7 814 kb/s<br>
Width : 1 920 pixels<br>
Height : 1 080 pixels<br>
Display aspect ratio : 16:9<br>
Frame rate mode : Constant<br>
Frame rate : 23.976 (24000/1001) FPS<br>
Color space : YUV<br>
Chroma subsampling : 4:2:0<br>
Bit depth : 8 bits<br>
Scan type : Progressive<br>
Bits/(Pixel*Frame) : 0.157<br>
Stream size : 5.39 GiB (97%)<br>
Writing library : x264 core 164 r3095 baee400<br>
Encoding settings : cabac=1 / ref=4 / deblock=1:0:0 / analyse=0x3:0x113 / me=umh / subme=7 / psy=1 / psy_rd=0.00:0.00 / mixed_ref=1 / me_range=16 / chroma_me=1 / trellis=1 / 8x8dct=1 / cqm=0 / deadzone=21,11 / fast_pskip=0 / chroma_qp_offset=0 / threads=34 / lookahead_threads=5 / sliced_threads=0 / nr=0 / decimate=1 / interlaced=0 / bluray_compat=0 / constrained_intra=0 / bframes=16 / b_pyramid=2 / b_adapt=1 / b_bias=0 / direct=1 / weightb=1 / open_gop=0 / weightp=2 / keyint=48 / keyint_min=4 / scenecut=0 / intra_refresh=0 / rc_lookahead=40 / rc=2pass / mbtree=1 / bitrate=7814 / ratetol=1.0 / qcomp=0.60 / qpmin=10 / qpmax=51 / qpstep=4 / cplxblur=20.0 / qblur=0.5 / vbv_maxrate=7814 / vbv_bufsize=7814 / nal_hrd=none / filler=0 / ip_ratio=1.41 / aq=1:1.00<br>
Default : Yes<br>
Forced : No<br>
Color range : Limited<br>
Color primaries : BT.709<br>
Transfer characteristics : BT.709<br>
Matrix coefficients : BT.709<br>
<br>
Audio<br>
ID : 2<br>
Format : E-AC-3<br>
Format/Info : Enhanced AC-3<br>
Commercial name : Dolby Digital Plus<br>
Codec ID : A_EAC3<br>
Duration : 1 h 42 min<br>
Bit rate mode : Constant<br>
Bit rate : 192 kb/s<br>
Channel(s) : 6 channels<br>
Channel layout : L R C LFE Ls Rs<br>
Sampling rate : 48.0 kHz<br>
Frame rate : 31.250 FPS (1536 SPF)<br>
Compression mode : Lossy<br>
Stream size : 140 MiB (2%)<br>
Language : English<br>
Service kind : Complete Main<br>
Default : Yes<br>
Forced : No<br>
<br>
Text<br>
ID : 3<br>
Format : UTF-8<br>
Codec ID : S_TEXT/UTF8<br>
Codec ID/Info : UTF-8 Plain Text<br>
Duration : 1 h 41 min<br>
Bit rate : 54 b/s<br>
Frame rate : 0.282 FPS<br>
Count of elements : 1719<br>
Stream size : 40.8 KiB (0%)<br>
Language : English<br>
Default : No<br>
Forced : No<br>
<br>
Menu<br>
01:38:29.487 : en:Credits</div>
</div><br>
<b>Screenshots</b><br>
<img src="https://i.imgur.com/cFQSDjz.png" class="bbCodeImage LbImage" alt="[​IMG]" data-url="https://i.imgur.com/cFQSDjz.png" style=""><br>
<br>
<b>Download</b><br>
<div class="bbCodeBlock bbCodeVfcHH HiddenContent">
<div class="attribution type">Hidden Content:</div>
<blockquote>You must reply before you can see the hidden data contained here.</blockquote>
</div></div>
<div class="messageTextEndMarker">&nbsp;</div>
</blockquote>
</article>]]></description>
                <author><![CDATA[Samuel]]></author>
                </item>

                
                <item>
                <title><![CDATA[【HD Live Performances】WEB-RiP - BLACKPINK - ‘Shut Down’ Live at Coachella 2023 (Youtube 1080p Premium WEB-DL)]]></title>
                <link><![CDATA[https://sharemania.us/threads/blackpink-%E2%80%98shut-down%E2%80%99-live-at-coachella-2023-youtube-1080p-premium-web-dl.221929/]]></link>
                <description><![CDATA[<article>
<blockquote class="messageText SelectQuoteContainer ugc baseHtml">
<div style="text-align: center"><span style="font-size: 22px"><b>BLACKPINK - ‘Shut Down’ Live at Coachella 2023</b><br>
<br>
<b><img src="https://i.ibb.co/TkhyLyY/shutdwn.jpg" class="bbCodeImage LbImage" alt="[​IMG]" data-url="https://i.ibb.co/TkhyLyY/shutdwn.jpg" style=""> </b></span>​</div><br>
<b>Youtube 1080p Premium VP9 :</b><br>
<br>
<div class="ToggleTriggerAnchor bbCodeSpoilerContainer">
<button type="button" class="button bbCodeSpoilerButton ToggleTrigger Tooltip JsOnly" data-target="> .SpoilerTarget"><span>Spoiler: <span class="SpoilerTitle">Mediainfo</span></span></button>
<div class="SpoilerTarget bbCodeSpoilerText">General<br>
Unique ID : 110814796134470333880486047464727712250 (0x535E27463F920DDAFC3AD0BC12F311FA)<br>
Complete name : BLACKPINK - ‘Shut Down’ Live at Coachella 2023 (1080p Premium VP9).mkv<br>
Format : Matroska<br>
Format version : Version 4<br>
File size : 122 MiB<br>
Duration : 3 min 15 s<br>
Overall bit rate : 5 241 kb/s<br>
Frame rate : 23.976 FPS<br>
Movie name : BLACKPINK - ‘Shut Down’ Live at Coachella 2023<br>
Encoded date : 2023-06-02 20:36:16 UTC<br>
Writing application : mkvmerge v73.0.0 ('25 or 6 to 4') 64-bit<br>
Writing library : libebml v1.4.4 + libmatroska v1.7.1<br>
Video<br>
ID : 1<br>
Format : VP9<br>
Format profile : 0<br>
Codec ID : V_VP9<br>
Duration : 3 min 15 s<br>
Bit rate : 5 112 kb/s<br>
Width : 1 920 pixels<br>
Height : 1 080 pixels<br>
Display aspect ratio : 16:9<br>
Frame rate mode : Constant<br>
Frame rate : 23.976 FPS<br>
Color space : YUV<br>
Chroma subsampling : 4:2:0 (Type 1)<br>
Bit depth : 8 bits<br>
Bits/(Pixel*Frame) : 0.103<br>
Stream size : 119 MiB (98%)<br>
Language : English<br>
Default : Yes<br>
Forced : No<br>
Color range : Limited<br>
Color primaries : BT.709<br>
Transfer characteristics : BT.709<br>
Matrix coefficients : BT.709<br>
Audio<br>
ID : 2<br>
Format : AAC LC<br>
Format/Info : Advanced Audio Codec Low Complexity<br>
Codec ID : 2 / A_AAC-2<br>
Duration : 3 min 15 s<br>
Bit rate : 128 kb/s<br>
Channel(s) : 2 channels<br>
Channel layout : L R<br>
Sampling rate : 44.1 kHz<br>
Frame rate : 43.066 FPS (1024 SPF)<br>
Compression mode : Lossy<br>
Stream size : 2.98 MiB (2%)<br>
Language : English<br>
Default : Yes<br>
Forced : No</div>
</div><br>
<div class="bbCodeBlock bbCodeVfcHH HiddenContent">
<div class="attribution type">Hidden Content:</div>
<blockquote>You must reply before you can see the hidden data contained here.</blockquote>
</div><b>1080p VP9 :</b><br>
<br>
<div class="ToggleTriggerAnchor bbCodeSpoilerContainer">
<button type="button" class="button bbCodeSpoilerButton ToggleTrigger Tooltip JsOnly" data-target="> .SpoilerTarget"><span>Spoiler: <span class="SpoilerTitle">Mediainfo</span></span></button>
<div class="SpoilerTarget bbCodeSpoilerText">General<br>
Unique ID : 154509255978139011277307850456672214889 (0x743D66789335949EDE51B8CD24F79F69)<br>
Complete name : BLACKPINK - ‘Shut Down’ Live at Coachella 2023 (1080p VP9).mkv<br>
Format : Matroska<br>
Format version : Version 4<br>
File size : 63.6 MiB<br>
Duration : 3 min 15 s<br>
Overall bit rate : 2 732 kb/s<br>
Frame rate : 23.976 FPS<br>
Encoded date : 2023-06-02 20:44:17 UTC<br>
Writing application : mkvmerge v73.0.0 ('25 or 6 to 4') 64-bit<br>
Writing library : libebml v1.4.4 + libmatroska v1.7.1<br>
Video<br>
ID : 1<br>
Format : VP9<br>
Format profile : 0<br>
Codec ID : V_VP9<br>
Duration : 3 min 15 s<br>
Bit rate : 2 602 kb/s<br>
Width : 1 920 pixels<br>
Height : 1 080 pixels<br>
Display aspect ratio : 16:9<br>
Frame rate mode : Constant<br>
Frame rate : 23.976 FPS<br>
Color space : YUV<br>
Chroma subsampling : 4:2:0 (Type 1)<br>
Bit depth : 8 bits<br>
Bits/(Pixel*Frame) : 0.052<br>
Stream size : 60.5 MiB (95%)<br>
Language : English<br>
Default : Yes<br>
Forced : No<br>
Color range : Limited<br>
Color primaries : BT.709<br>
Transfer characteristics : BT.709<br>
Matrix coefficients : BT.709<br>
Audio<br>
ID : 2<br>
Format : AAC LC<br>
Format/Info : Advanced Audio Codec Low Complexity<br>
Codec ID : 2 / A_AAC-2<br>
Duration : 3 min 15 s<br>
Bit rate : 128 kb/s<br>
Channel(s) : 2 channels<br>
Channel layout : L R<br>
Sampling rate : 44.1 kHz<br>
Frame rate : 43.066 FPS (1024 SPF)<br>
Compression mode : Lossy<br>
Stream size : 2.98 MiB (5%)<br>
Language : English<br>
Default : Yes<br>
Forced : No</div>
</div><br>
<div class="bbCodeBlock bbCodeVfcHH HiddenContent">
<div class="attribution type">Hidden Content:</div>
<blockquote>You must reply before you can see the hidden data contained here.</blockquote>
</div><b>1080p AV1 :</b><br>
<br>
<div class="ToggleTriggerAnchor bbCodeSpoilerContainer">
<button type="button" class="button bbCodeSpoilerButton ToggleTrigger Tooltip JsOnly" data-target="> .SpoilerTarget"><span>Spoiler: <span class="SpoilerTitle">Mediainfo</span></span></button>
<div class="SpoilerTarget bbCodeSpoilerText">General<br>
Unique ID : 320075667765641623535921559485586244493 (0xF0CC54D03486D02477E875B7F41E838D)<br>
Complete name : BLACKPINK - ‘Shut Down’ Live at Coachella 2023 (1080p AV1).mkv<br>
Format : Matroska<br>
Format version : Version 4<br>
File size : 55.4 MiB<br>
Duration : 3 min 15 s<br>
Overall bit rate : 2 382 kb/s<br>
Frame rate : 23.976 FPS<br>
Encoded date : 2023-06-02 20:44:54 UTC<br>
Writing application : mkvmerge v73.0.0 ('25 or 6 to 4') 64-bit<br>
Writing library : libebml v1.4.4 + libmatroska v1.7.1<br>
Video<br>
ID : 1<br>
Format : AV1<br>
Format/Info : AOMedia Video 1<br>
Format profile : Main@L4.0<br>
Codec ID : V_AV1<br>
Duration : 3 min 15 s<br>
Bit rate : 2 252 kb/s<br>
Width : 1 920 pixels<br>
Height : 1 080 pixels<br>
Display aspect ratio : 16:9<br>
Frame rate mode : Constant<br>
Frame rate : 23.976 (24000/1001) FPS<br>
Color space : YUV<br>
Chroma subsampling : 4:2:0<br>
Bit depth : 8 bits<br>
Bits/(Pixel*Frame) : 0.045<br>
Stream size : 52.4 MiB (95%)<br>
Default : Yes<br>
Forced : No<br>
Color range : Limited<br>
Color primaries : BT.709<br>
Transfer characteristics : BT.709<br>
Matrix coefficients : BT.709<br>
Audio<br>
ID : 2<br>
Format : AAC LC<br>
Format/Info : Advanced Audio Codec Low Complexity<br>
Codec ID : 2 / A_AAC-2<br>
Duration : 3 min 15 s<br>
Bit rate : 128 kb/s<br>
Channel(s) : 2 channels<br>
Channel layout : L R<br>
Sampling rate : 44.1 kHz<br>
Frame rate : 43.066 FPS (1024 SPF)<br>
Compression mode : Lossy<br>
Stream size : 2.98 MiB (5%)<br>
Language : English<br>
Default : Yes<br>
Forced : No</div>
</div><br>
<div class="bbCodeBlock bbCodeVfcHH HiddenContent">
<div class="attribution type">Hidden Content:</div>
<blockquote>You must reply before you can see the hidden data contained here.</blockquote>
</div>
<div class="messageTextEndMarker">&nbsp;</div>
</blockquote>
</article>]]></description>
                <author><![CDATA[mekikkaa]]></author>
                </item>

                
                <item>
                <title><![CDATA[【HD Live Performances】Andres Calamaro Pura Sangre 2014 FLOW.WEB-DL.1080p-Tknobi]]></title>
                <link><![CDATA[https://sharemania.us/threads/andres-calamaro-pura-sangre-2014-flow-web-dl-1080p-tknobi.221909/]]></link>
                <description><![CDATA[<article>
<blockquote class="messageText SelectQuoteContainer ugc baseHtml">
<div style="text-align: center"><img src="https://images2.imgbox.com/4a/a7/TPkgaMKc_o.jpg" class="bbCodeImage LbImage" alt="[​IMG]" data-url="https://images2.imgbox.com/4a/a7/TPkgaMKc_o.jpg" style=""> <br>
<br>
<div class="ToggleTriggerAnchor bbCodeSpoilerContainer">
<button type="button" class="button bbCodeSpoilerButton ToggleTrigger Tooltip JsOnly" data-target="> .SpoilerTarget"><span>Spoiler: <span class="SpoilerTitle">MediaInfo</span></span></button>
<div class="SpoilerTarget bbCodeSpoilerText">Format : Matroska<br>
Format version : Version 4<br>
File size : 3.37 GiB<br>
Duration : 2 h 2 min<br>
Overall bit rate : 3 954 kb/s<br>
Encoded date : UTC 2023-06-01 06:02:25<br>
Writing application : mkvmerge v66.0.0 ('Josie') 64-bit<br>
Writing library : libebml v1.4.2 + libmatroska v1.6.4<br>
<br>
Video<br>
ID : 1<br>
Format : AVC<br>
Format/Info : Advanced Video Codec<br>
Format profile : High@L4<br>
Format settings : CABAC / 3 Ref Frames<br>
Format settings, CABAC : Yes<br>
Format settings, Reference frames : 3 frames<br>
Format settings, GOP : M=1, N=60<br>
Codec ID : V_MPEG4/ISO/AVC<br>
Duration : 2 h 2 min<br>
Bit rate : 3 888 kb/s<br>
Width : 1 920 pixels<br>
Height : 1 080 pixels<br>
Display aspect ratio : 16:9<br>
Frame rate mode : Constant<br>
Frame rate : 29.970 (30000/1001) FPS<br>
Color space : YUV<br>
Chroma subsampling : 4:2:0<br>
Bit depth : 8 bits<br>
Scan type : Progressive<br>
Bits/(Pixel*Frame) : 0.063<br>
Stream size : 3.31 GiB (98%)<br>
Default : Yes<br>
Forced : No<br>
<br>
Audio<br>
ID : 2<br>
Format : AAC LC SBR<br>
Format/Info : Advanced Audio Codec Low Complexity with Spectral Band Replication<br>
Commercial name : HE-AAC<br>
Format settings : Implicit<br>
Codec ID : A_AAC-2<br>
Duration : 2 h 2 min<br>
Bit rate : 64.0 kb/s<br>
Channel(s) : 2 channels<br>
Channel layout : L R<br>
Sampling rate : 48.0 kHz<br>
Frame rate : 23.438 FPS (2048 SPF)<br>
Compression mode : Lossy<br>
Stream size : 55.9 MiB (2%)<br>
Language : Spanish<br>
Default : Yes<br>
Forced : No</div>
</div><br>
<div class="bbCodeBlock bbCodeVfcHH HiddenContent">
<div class="attribution type">Hidden Content:</div>
<blockquote>You must either reply or click 'Like' to see the hidden information contained here.</blockquote>
</div></div>
<div class="messageTextEndMarker">&nbsp;</div>
</blockquote>
</article>]]></description>
                <author><![CDATA[tknobi]]></author>
                </item>

                
                <item>
                <title><![CDATA[【HD Live Performances】Fito &amp; Fitipaldis &amp; Andrés Calamaro 2 Son Multitud 2008 FLOW.WEB-DL.1080p-Tknobi]]></title>
                <link><![CDATA[https://sharemania.us/threads/fito-fitipaldis-andr%C3%A9s-calamaro-2-son-multitud-2008-flow-web-dl-1080p-tknobi.221907/]]></link>
                <description><![CDATA[<article>
<blockquote class="messageText SelectQuoteContainer ugc baseHtml">
<div style="text-align: center"><img src="https://images2.imgbox.com/32/73/r8p7zTED_o.jpg" class="bbCodeImage LbImage" alt="[​IMG]" data-url="https://images2.imgbox.com/32/73/r8p7zTED_o.jpg" style=""> <br>
<div class="ToggleTriggerAnchor bbCodeSpoilerContainer">
<button type="button" class="button bbCodeSpoilerButton ToggleTrigger Tooltip JsOnly" data-target="> .SpoilerTarget"><span>Spoiler: <span class="SpoilerTitle">MediaInfo</span></span></button>
<div class="SpoilerTarget bbCodeSpoilerText">Format : Matroska<br>
Format version : Version 4<br>
File size : 3.77 GiB<br>
Duration : 2 h 13 min<br>
Overall bit rate : 4 043 kb/s<br>
Encoded date : UTC 2023-06-01 05:58:46<br>
Writing application : mkvmerge v66.0.0 ('Josie') 64-bit<br>
Writing library : libebml v1.4.2 + libmatroska v1.6.4<br>
<br>
Video<br>
ID : 1<br>
Format : AVC<br>
Format/Info : Advanced Video Codec<br>
Format profile : High@L4<br>
Format settings : CABAC / 3 Ref Frames<br>
Format settings, CABAC : Yes<br>
Format settings, Reference frames : 3 frames<br>
Format settings, GOP : M=1, N=60<br>
Codec ID : V_MPEG4/ISO/AVC<br>
Duration : 2 h 13 min<br>
Bit rate : 3 977 kb/s<br>
Width : 1 920 pixels<br>
Height : 1 080 pixels<br>
Display aspect ratio : 16:9<br>
Frame rate mode : Constant<br>
Frame rate : 29.970 (30000/1001) FPS<br>
Color space : YUV<br>
Chroma subsampling : 4:2:0<br>
Bit depth : 8 bits<br>
Scan type : Progressive<br>
Bits/(Pixel*Frame) : 0.064<br>
Stream size : 3.71 GiB (98%)<br>
Default : Yes<br>
Forced : No<br>
<br>
Audio<br>
ID : 2<br>
Format : AAC LC SBR<br>
Format/Info : Advanced Audio Codec Low Complexity with Spectral Band Replication<br>
Commercial name : HE-AAC<br>
Format settings : Implicit<br>
Codec ID : A_AAC-2<br>
Duration : 2 h 13 min<br>
Bit rate : 64.0 kb/s<br>
Channel(s) : 2 channels<br>
Channel layout : L R<br>
Sampling rate : 48.0 kHz<br>
Frame rate : 23.438 FPS (2048 SPF)<br>
Compression mode : Lossy<br>
Stream size : 61.2 MiB (2%)<br>
Language : Spanish<br>
Default : Yes<br>
Forced : No</div>
</div><br>
<div class="bbCodeBlock bbCodeVfcHH HiddenContent">
<div class="attribution type">Hidden Content:</div>
<blockquote>You must either reply or click 'Like' to see the hidden information contained here.</blockquote>
</div></div>
<div class="messageTextEndMarker">&nbsp;</div>
</blockquote>
</article>]]></description>
                <author><![CDATA[tknobi]]></author>
                </item>

                
                <item>
                <title><![CDATA[【Albums (lossless)】FLAC - Spider-Man: Across the Spider-Verse (Original Score) - Daniel Pemberton]]></title>
                <link><![CDATA[https://sharemania.us/threads/spider-man-across-the-spider-verse-original-score-daniel-pemberton.221916/]]></link>
                <description><![CDATA[<article>
<blockquote class="messageText SelectQuoteContainer ugc baseHtml">
<div style="text-align: center"><span style="font-size: 22px">Spider-Man: Across the Spider-Verse (Original Score) - Daniel Pemberton<br>
<br>
<img src="https://media.tenor.com/K8Q0biEhfeoAAAAC/spider-man-logo-spider-man-across-the-spider-verse.gif" class="bbCodeImage LbImage" alt="[​IMG]" data-url="https://media.tenor.com/K8Q0biEhfeoAAAAC/spider-man-logo-spider-man-across-the-spider-verse.gif" style=""> <br>
<br>
<b>SOURCE: <a href="https://www.qobuz.com/us-en/album/metro-boomin-presents-spider-man-across-the-spider-verse-metro-boomin/tozxe4nl54rcc#" target="_blank" class="externalLink" rel="nofollow">QOBUZ</a></b></span><br>
<span style="font-size: 15px"><b>24-Bit48.0 kHz - Stereo</b></span><br>
<br>
<br>
<span style="font-size: 18px">GDRIVE<br>
<div class="bbCodeBlock bbCodeVfcHH HiddenContent">
<div class="attribution type">Hidden Content:</div>
<blockquote>You must reply before you can see the hidden data contained here.</blockquote>
</div></span><br>
​</div>
<div class="messageTextEndMarker">&nbsp;</div>
</blockquote>
</article>]]></description>
                <author><![CDATA[Arun.tf]]></author>
                </item>

                
                <item>
                <title><![CDATA[【TIDAL】WEB-RiP - Lana Del Rey - Candy Necklace (Tidal 1080p-stargamer)]]></title>
                <link><![CDATA[https://sharemania.us/threads/lana-del-rey-candy-necklace-tidal-1080p-stargamer.221911/]]></link>
                <description><![CDATA[<article>
<blockquote class="messageText SelectQuoteContainer ugc baseHtml">
<div class="bbCodeBlock bbCodeVfcHH HiddenContent">
<div class="attribution type">Hidden Content:</div>
<blockquote>You must either reply or click 'Like' to see the hidden information contained here.</blockquote>
</div>
<div class="messageTextEndMarker">&nbsp;</div>
</blockquote>
</article>]]></description>
                <author><![CDATA[stargamer]]></author>
                </item>

                
                <item>
                <title><![CDATA[【Requests】[REQ CAP] - SUGA | Agust D TOUR 'D-DAY' no JAPÃO]]></title>
                <link><![CDATA[https://sharemania.us/threads/suga-agust-d-tour-d-day-no-jap%C3%83o.221927/]]></link>
                <description><![CDATA[<article>
<blockquote class="messageText SelectQuoteContainer ugc baseHtml">
SUGA : LIVE FROM TOKYO<br>
<br>
<img src="https://fr.web.img6.acsta.net/pictures/23/05/09/00/00/2622152.jpg/r_5000_x" class="bbCodeImage LbImage" alt="[​IMG]" data-url="https://fr.web.img6.acsta.net/pictures/23/05/09/00/00/2622152.jpg/r_5000_x" style=""> <br>
<br>
Does anyone get this show that will be showing tomorrow in theaters?
<div class="messageTextEndMarker">&nbsp;</div>
</blockquote>
</article>]]></description>
                <author><![CDATA[mvlmoraes]]></author>
                </item>

                
                <item>
                <title><![CDATA[【Singles (lossy)】Dolby Atmos - Lil Uzi Vert - Just Wanna Rock (Dolby Atmos)]]></title>
                <link><![CDATA[https://sharemania.us/threads/lil-uzi-vert-just-wanna-rock-dolby-atmos.221925/]]></link>
                <description><![CDATA[<article>
<blockquote class="messageText SelectQuoteContainer ugc baseHtml">
<img src="https://i.scdn.co/image/ab67616d0000b2730e34fd68e8ff04e4515eb72a" class="bbCodeImage LbImage" alt="[​IMG]" data-url="https://i.scdn.co/image/ab67616d0000b2730e34fd68e8ff04e4515eb72a" style=""> <br>
Source: Tidal<br>
Format: .m4a E-AC3 JOC<br>
<div class="bbCodeBlock bbCodeVfcHH HiddenContent">
<div class="attribution type">Hidden Content:</div>
<blockquote>You must reply before you can see the hidden data contained here.</blockquote>
</div>
<div class="messageTextEndMarker">&nbsp;</div>
</blockquote>
</article>]]></description>
                <author><![CDATA[BbbDdd345]]></author>
                </item>

                
                <item>
                <title><![CDATA[【Requests】[REQ AUD] - The Weeknd Apple Digital Master Discography ALAC Hi-Res]]></title>
                <link><![CDATA[https://sharemania.us/threads/the-weeknd-apple-digital-master-discography-alac-hi-res.221917/]]></link>
                <description><![CDATA[<article>
<blockquote class="messageText SelectQuoteContainer ugc baseHtml">
Hello, I would like The Weeknd Apple Digital Master discography - I care specifically about the mastering so if it does not have any mastering differences please do not include it. I want it in highest available quality, so if it is 24bit, then have it 24bit, if it is only 16bit then only 16bit. If some of it is in 32bit, please then have it in 32bit as well. I want the albums and non-album singles.
<div class="messageTextEndMarker">&nbsp;</div>
</blockquote>
</article>]]></description>
                <author><![CDATA[Asais10]]></author>
                </item>

                
                <item>
                <title><![CDATA[【UPSCALED】The Supermen Lovers feat. Mani Hoffman - Starlight (AI Upscaled 1080P) (20th Anniversary Audio)]]></title>
                <link><![CDATA[https://sharemania.us/threads/the-supermen-lovers-feat-mani-hoffman-starlight-ai-upscaled-1080p-20th-anniversary-audio.221923/]]></link>
                <description><![CDATA[<article>
<blockquote class="messageText SelectQuoteContainer ugc baseHtml">
<a href="https://postimg.cc/0MfZDTmb" target="_blank" class="externalLink" rel="nofollow"><img src="https://i.postimg.cc/0MfZDTmb/The-Supermen-Lovers-feat-Mani-Hoffman-Starlight-1080-P-Remastered-20th-Anniversary-Audio-mp4.jpg" class="bbCodeImage LbImage" alt="[​IMG]" data-url="https://i.postimg.cc/0MfZDTmb/The-Supermen-Lovers-feat-Mani-Hoffman-Starlight-1080-P-Remastered-20th-Anniversary-Audio-mp4.jpg"></a><br>
<br>
<div class="bbCodeBlock bbCodeVfcHH HiddenContent">
<div class="attribution type">Hidden Content:</div>
<blockquote>You must either reply or click 'Like' to see the hidden information contained here.</blockquote>
</div>
<div class="messageTextEndMarker">&nbsp;</div>
</blockquote>
</article>]]></description>
                <author><![CDATA[djalf77]]></author>
                </item>

                
                <item>
                <title><![CDATA[【Albums (lossless)】FLAC - Stray Kids – 5-STAR [WEB FLAC 24-Bit/48.0 kHz + QQ Music Hi-Res Audio]]]></title>
                <link><![CDATA[https://sharemania.us/threads/stray-kids-%E2%80%93-5-star-web-flac-24-bit-48-0-khz-qq-music-hi-res-audio.221914/]]></link>
                <description><![CDATA[<article>
<blockquote class="messageText SelectQuoteContainer ugc baseHtml">
<b><img src="https://i.imgur.com/Wg5eSXm.jpg" class="bbCodeImage LbImage" alt="[​IMG]" data-url="https://i.imgur.com/Wg5eSXm.jpg" style=""><br>
<img src="https://i.imgur.com/JnvMsxw.png" class="bbCodeImage LbImage" alt="[​IMG]" data-url="https://i.imgur.com/JnvMsxw.png" style=""></b><br>
<span style="font-family: 'Book Antiqua'"><span style="font-size: 15px"><b>Artist</b>: Stray Kids (스트레이 키즈)<br>
<b>Album</b>: ★★★★★ (5-STAR)<br>
<b>Release</b>: 2023/06/02<br>
<b>Type</b>: Studio Album<br>
<b>Format</b>: Free Lossless Audio Codec<br>
<b>Quality</b>: High Resolution, Lossless Audio - Studio Quality<br>
<b>Sample Rate</b>: 24-Bit/48.000 kHz - Stereo<br>
<b>Source</b>: Downloaded from <span style="color: #0059b3">QQ Music</span><br>
<br>
<b>TRACK LIST</b><br>
1. 위인전<br>
2. 특<br>
3. ITEM<br>
4. Super Bowl<br>
5. TOPLINE (Feat. Tiger JK)<br>
6. DLC<br>
7. 죽어보자<br>
8. 충돌<br>
9. FNF<br>
10. Youtiful<br>
11. THE SOUND (Korean Ver.)<br>
12. Time Out<br>
<br>
<b>MORE INFORMATION</b><br>
1 Disc - 12 Tracks.<br>
Artwork - JPEG 4000x4000.<br>
LRC Files - Synchronized Lyrics.<br>
SoX Spectrograms - <a href="https://imgur.com/a/lkGuKiP" target="_blank" class="externalLink" rel="nofollow">Preview</a>.<br>
Lossless Audio Checker - <a href="https://i.imgur.com/9QaYB5P.png" target="_blank" class="externalLink" rel="nofollow">Preview</a>.<br>
<br>
<b>DOWNLOAD</b><br>
<div class="bbCodeBlock bbCodeVfcHH HiddenContent">
<div class="attribution type">Hidden Content:</div>
<blockquote>You must reply before you can see the hidden data contained here.</blockquote>
</div></span></span>
<div class="messageTextEndMarker">&nbsp;</div>
</blockquote>
</article>]]></description>
                <author><![CDATA[samymskzs]]></author>
                </item>

                
                <item>
                <title><![CDATA[【UPSCALED】Outwork feat. Mr Gee - Elektro (AI Upscaled 1080P)]]></title>
                <link><![CDATA[https://sharemania.us/threads/outwork-feat-mr-gee-elektro-ai-upscaled-1080p.221922/]]></link>
                <description><![CDATA[<article>
<blockquote class="messageText SelectQuoteContainer ugc baseHtml">
<a href="https://postimg.cc/ZvcynmG5" target="_blank" class="externalLink" rel="nofollow"><img src="https://i.postimg.cc/ZvcynmG5/Outwork-feat-Mr-Gee-Elektro-Upscaled-1080-P-mp4-thumbs-2023-06-02-23-02-21.jpg" class="bbCodeImage LbImage" alt="[​IMG]" data-url="https://i.postimg.cc/ZvcynmG5/Outwork-feat-Mr-Gee-Elektro-Upscaled-1080-P-mp4-thumbs-2023-06-02-23-02-21.jpg"></a><br>
<br>
<div class="bbCodeBlock bbCodeVfcHH HiddenContent">
<div class="attribution type">Hidden Content:</div>
<blockquote>You must either reply or click 'Like' to see the hidden information contained here.</blockquote>
</div>
<div class="messageTextEndMarker">&nbsp;</div>
</blockquote>
</article>]]></description>
                <author><![CDATA[djalf77]]></author>
                </item>

                
                <item>
                <title><![CDATA[【Requests】[REQ AUD] - Sia - Cheap Thrills (Regional Radio edits)]]></title>
                <link><![CDATA[https://sharemania.us/threads/sia-cheap-thrills-regional-radio-edits.221919/]]></link>
                <description><![CDATA[<article>
<blockquote class="messageText SelectQuoteContainer ugc baseHtml">
anyone have these or any of the other regional radio edits in good quality? tysm <br>
<a href="https://lostmediaarchive.fandom.com/wiki/Cheap_Thrills_(Various_Radio_Versions)" target="_blank" class="externalLink" rel="nofollow">https://lostmediaarchive.fandom.com/wiki/Cheap_Thrills_(Various_Radio_Versions)</a>
<div class="messageTextEndMarker">&nbsp;</div>
</blockquote>
</article>]]></description>
                <author><![CDATA[ifuseekme]]></author>
                </item>

                
                <item>
                <title><![CDATA[【Requests】[REQ AUD] - Jaded - Jaded 2006]]></title>
                <link><![CDATA[https://sharemania.us/threads/jaded-jaded-2006.221918/]]></link>
                <description><![CDATA[<article>
<blockquote class="messageText SelectQuoteContainer ugc baseHtml">
Hi there, any chance someone has this record in flac? Is out of print from time...mission impossible?<br>
<br>
Label Jadedrocks – 807921015126<br>
<br>
<a href="https://imgbb.com/" target="_blank" class="externalLink" rel="nofollow"><img src="https://i.ibb.co/RvT5wtn/2962707.jpg" class="bbCodeImage LbImage" alt="[​IMG]" data-url="https://i.ibb.co/RvT5wtn/2962707.jpg"></a>
<div class="messageTextEndMarker">&nbsp;</div>
</blockquote>
</article>]]></description>
                <author><![CDATA[RobyMilan]]></author>
                </item>

                
                <item>
                <title><![CDATA[【Albums (lossless)】FLAC - Stray Kids – 5-STAR [WEB M4A FLAC 16-Bit/44.1 kHz + Amazon Music HD Audio]]]></title>
                <link><![CDATA[https://sharemania.us/threads/stray-kids-%E2%80%93-5-star-web-m4a-flac-16-bit-44-1-khz-amazon-music-hd-audio.221915/]]></link>
                <description><![CDATA[<article>
<blockquote class="messageText SelectQuoteContainer ugc baseHtml">
<b><img src="https://i.imgur.com/Wg5eSXm.jpg" class="bbCodeImage LbImage" alt="[​IMG]" data-url="https://i.imgur.com/Wg5eSXm.jpg" style=""><br>
<img src="https://i.imgur.com/yiG974T.png" class="bbCodeImage LbImage" alt="[​IMG]" data-url="https://i.imgur.com/yiG974T.png" style=""></b><br>
<span style="font-family: 'Book Antiqua'"><span style="font-size: 15px"><b>Artist</b>: Stray Kids (스트레이 키즈)<br>
<b>Album</b>: ★★★★★ (5-STAR)<br>
<b>Release</b>: 2023/06/02<br>
<b>Type</b>: Studio Album<br>
<b>Format</b>: Free Lossless Audio Codec<br>
<b>Quality</b>: High Fidelity, Lossless Audio - CD Quality<br>
<b>Sample Rate</b>: 16-Bit/44.100 kHz - Stereo<br>
<b>Encoding</b>: M4A (ISO 14496-1 Base Media)<br>
<b>Source</b>: Ripped from <span style="color: #0059b3">Amazon Music</span><br>
<br>
<b>TRACK LIST</b><br>
1. 위인전<br>
2. 특<br>
3. ITEM<br>
4. Super Bowl<br>
5. TOPLINE (Feat. Tiger JK)<br>
6. DLC<br>
7. 죽어보자<br>
8. 충돌<br>
9. FNF<br>
10. Youtiful<br>
11. THE SOUND (Korean Ver.)<br>
12. Time Out<br>
<br>
<b>MORE INFORMATION</b><br>
1 Disc - 12 Tracks.<br>
Artwork - JPEG 4000x4000.<br>
SoX Spectrograms - <a href="https://imgur.com/a/KmpTbNQ" target="_blank" class="externalLink" rel="nofollow">Preview</a>.<br>
MediaInfo - <a href="https://drive.google.com/file/d/1lV_1IzUtaKb5FawuZWc0HvE9i0h1Zcca/view" target="_blank" class="externalLink" rel="nofollow">Preview</a>.<br>
Fakin' The Funk? - <a href="https://i.imgur.com/O1qN9C6.png" target="_blank" class="externalLink" rel="nofollow">Preview</a>.<br>
<br>
<b>DOWNLOAD</b><br>
<div class="bbCodeBlock bbCodeVfcHH HiddenContent">
<div class="attribution type">Hidden Content:</div>
<blockquote>You must reply before you can see the hidden data contained here.</blockquote>
</div></span></span>
<div class="messageTextEndMarker">&nbsp;</div>
</blockquote>
</article>]]></description>
                <author><![CDATA[samymskzs]]></author>
                </item>

                
                <item>
                <title><![CDATA[【HD Live Performances】Ciro y Los Persas en el Teatro Opera 2020 FLOW.WEB-DL.1080p-Tknobi]]></title>
                <link><![CDATA[https://sharemania.us/threads/ciro-y-los-persas-en-el-teatro-opera-2020-flow-web-dl-1080p-tknobi.221910/]]></link>
                <description><![CDATA[<article>
<blockquote class="messageText SelectQuoteContainer ugc baseHtml">
<div style="text-align: center"><img src="https://images2.imgbox.com/1e/7e/2pUbM94S_o.jpg" class="bbCodeImage LbImage" alt="[​IMG]" data-url="https://images2.imgbox.com/1e/7e/2pUbM94S_o.jpg" style=""> <br>
<br>
<div class="ToggleTriggerAnchor bbCodeSpoilerContainer">
<button type="button" class="button bbCodeSpoilerButton ToggleTrigger Tooltip JsOnly" data-target="> .SpoilerTarget"><span>Spoiler: <span class="SpoilerTitle">MediaInfo</span></span></button>
<div class="SpoilerTarget bbCodeSpoilerText">Format : Matroska<br>
Format version : Version 4<br>
File size : 3.08 GiB<br>
Duration : 1 h 50 min<br>
Overall bit rate : 3 981 kb/s<br>
Encoded date : UTC 2023-06-01 06:01:29<br>
Writing application : mkvmerge v66.0.0 ('Josie') 64-bit<br>
Writing library : libebml v1.4.2 + libmatroska v1.6.4<br>
<br>
Video<br>
ID : 1<br>
Format : AVC<br>
Format/Info : Advanced Video Codec<br>
Format profile : High@L4<br>
Format settings : CABAC / 3 Ref Frames<br>
Format settings, CABAC : Yes<br>
Format settings, Reference frames : 3 frames<br>
Format settings, GOP : M=1, N=60<br>
Codec ID : V_MPEG4/ISO/AVC<br>
Duration : 1 h 50 min<br>
Bit rate : 3 914 kb/s<br>
Width : 1 920 pixels<br>
Height : 1 080 pixels<br>
Display aspect ratio : 16:9<br>
Frame rate mode : Constant<br>
Frame rate : 29.970 (30000/1001) FPS<br>
Color space : YUV<br>
Chroma subsampling : 4:2:0<br>
Bit depth : 8 bits<br>
Scan type : Progressive<br>
Bits/(Pixel*Frame) : 0.063<br>
Stream size : 3.02 GiB (98%)<br>
Default : Yes<br>
Forced : No<br>
<br>
Audio<br>
ID : 2<br>
Format : AAC LC SBR<br>
Format/Info : Advanced Audio Codec Low Complexity with Spectral Band Replication<br>
Commercial name : HE-AAC<br>
Format settings : Implicit<br>
Codec ID : A_AAC-2<br>
Duration : 1 h 50 min<br>
Bit rate : 64.0 kb/s<br>
Channel(s) : 2 channels<br>
Channel layout : L R<br>
Sampling rate : 48.0 kHz<br>
Frame rate : 23.438 FPS (2048 SPF)<br>
Compression mode : Lossy<br>
Stream size : 50.6 MiB (2%)<br>
Language : English<br>
Default : Yes<br>
Forced : No</div>
</div><br>
<div class="bbCodeBlock bbCodeVfcHH HiddenContent">
<div class="attribution type">Hidden Content:</div>
<blockquote>You must either reply or click 'Like' to see the hidden information contained here.</blockquote>
</div></div>
<div class="messageTextEndMarker">&nbsp;</div>
</blockquote>
</article>]]></description>
                <author><![CDATA[tknobi]]></author>
                </item>

                
                <item>
                <title><![CDATA[【Albums (lossy)】Dolby Atmos - Metro Boomin - SPIDER-MAN: ACROSS THE SPIDER-VERSE (SOUNDTRACK FROM AND INSPIRED BY THE MOTION PICTURE) (Dolby Atmos)]]></title>
                <link><![CDATA[https://sharemania.us/threads/metro-boomin-spider-man-across-the-spider-verse-soundtrack-from-and-inspired-by-the-motion-picture-dolby-atmos.221924/]]></link>
                <description><![CDATA[<article>
<blockquote class="messageText SelectQuoteContainer ugc baseHtml">
<img src="https://i.scdn.co/image/ab67616d0000b2736ed9aef791159496b286179f" class="bbCodeImage LbImage" alt="[​IMG]" data-url="https://i.scdn.co/image/ab67616d0000b2736ed9aef791159496b286179f" style=""> <br>
Note: The movie is great, on par with the first.<br>
<br>
Source: Tidal<br>
Format: .m4a E-AC3 JOC<br>
<div class="bbCodeBlock bbCodeVfcHH HiddenContent">
<div class="attribution type">Hidden Content:</div>
<blockquote>You must reply before you can see the hidden data contained here.</blockquote>
</div>
<div class="messageTextEndMarker">&nbsp;</div>
</blockquote>
</article>]]></description>
                <author><![CDATA[BbbDdd345]]></author>
                </item>

                
                <item>
                <title><![CDATA[【Requests】[REQ AUD] - Lady Gaga - You and I (Regional Radio edits)]]></title>
                <link><![CDATA[https://sharemania.us/threads/lady-gaga-you-and-i-regional-radio-edits.221920/]]></link>
                <description><![CDATA[<article>
<blockquote class="messageText SelectQuoteContainer ugc baseHtml">
allegedly she recorded them for every state but there are a handful of these on youtube. looking for higher quality mp3 or wav if possible tysm<br>
<div data-s9e-mediaembed="youtube" style="display:inline-block;width:100%;max-width:640px"><div style="overflow:hidden;position:relative;padding-bottom:56.25%"><iframe allowfullscreen="" scrolling="no" style="background:url(https://i.ytimg.com/vi/aic0xN8_Y28/hqdefault.jpg) 50% 50% / cover;border:0;height:100%;left:0;position:absolute;width:100%" src="https://www.youtube.com/embed/aic0xN8_Y28"></iframe></div></div><br>
<div data-s9e-mediaembed="youtube" style="display:inline-block;width:100%;max-width:640px"><div style="overflow:hidden;position:relative;padding-bottom:56.25%"><iframe allowfullscreen="" scrolling="no" style="background:url(https://i.ytimg.com/vi/73B_6e7u9JU/hqdefault.jpg) 50% 50% / cover;border:0;height:100%;left:0;position:absolute;width:100%" src="https://www.youtube.com/embed/73B_6e7u9JU"></iframe></div></div>
<div class="messageTextEndMarker">&nbsp;</div>
</blockquote>
</article>]]></description>
                <author><![CDATA[ifuseekme]]></author>
                </item>

                
                <item>
                <title><![CDATA[【Singles (lossy)】Dolby Atmos - Paul McCartney - Live and Let Die (Dolby Atmos)]]></title>
                <link><![CDATA[https://sharemania.us/threads/paul-mccartney-live-and-let-die-dolby-atmos.221928/]]></link>
                <description><![CDATA[<article>
<blockquote class="messageText SelectQuoteContainer ugc baseHtml">
<img src="https://i.scdn.co/image/ab67616d0000b27326a63ad48d31f09fe5089a94" class="bbCodeImage LbImage" alt="[​IMG]" data-url="https://i.scdn.co/image/ab67616d0000b27326a63ad48d31f09fe5089a94" style=""> <br>
Source: Tidal<br>
Format: .m4a E-AC3 JOC<br>
<div class="bbCodeBlock bbCodeVfcHH HiddenContent">
<div class="attribution type">Hidden Content:</div>
<blockquote>You must reply before you can see the hidden data contained here.</blockquote>
</div>
<div class="messageTextEndMarker">&nbsp;</div>
</blockquote>
</article>]]></description>
                <author><![CDATA[BbbDdd345]]></author>
                </item>

                
                <item>
                <title><![CDATA[【UPSCALED】Bob Sinclar - Kiss My Eyes (AI Upscaled 1080P)]]></title>
                <link><![CDATA[https://sharemania.us/threads/bob-sinclar-kiss-my-eyes-ai-upscaled-1080p.221926/]]></link>
                <description><![CDATA[<article>
<blockquote class="messageText SelectQuoteContainer ugc baseHtml">
<a href="https://postimg.cc/cvxxcYVC" target="_blank" class="externalLink" rel="nofollow"><img src="https://i.postimg.cc/cvxxcYVC/Bob-Sinclar-Kiss-My-Eyes-1080-P-Remastered-mp4-thumbs-2023-06-02-23-21-51.jpg" class="bbCodeImage LbImage" alt="[​IMG]" data-url="https://i.postimg.cc/cvxxcYVC/Bob-Sinclar-Kiss-My-Eyes-1080-P-Remastered-mp4-thumbs-2023-06-02-23-21-51.jpg"></a><br>
<br>
<div class="bbCodeBlock bbCodeVfcHH HiddenContent">
<div class="attribution type">Hidden Content:</div>
<blockquote>You must either reply or click 'Like' to see the hidden information contained here.</blockquote>
</div>
<div class="messageTextEndMarker">&nbsp;</div>
</blockquote>
</article>]]></description>
                <author><![CDATA[djalf77]]></author>
                </item>

                </channel></rss>